# xmcd
#
# Track frame offsets:
#	182
#	13353
#	26544
#	39899
#	52371
#	67105
#	80222
#	92804
#	105964
#	117964
#	129231
#	139437
#	151806
#	164060
#	176891
#	191780
#	204482
#	218296
#	230812
#	243711
#	256278
#	268459
#	280727
#
# Disc length: 3905 seconds
# Revision: 3
# Processed by: cddbd v1.5.2PL0 Copyright (c) Steve Scherf et al.
# Submitted via: dBpowerAMP V12.0
#
DISCID=620f3f17
DTITLE=John Lee Hooker - Vol.3 - Detroit 1949-50
DYEAR=2003
DGENRE=Blues
TTITLE0=609 Boogie
TTITLE1=No Friend Around
TTITLE2=Wednesday Evening
TTITLE3=Canal Street Blues
TTITLE4=Playin' the Races
TTITLE5=Well I Got to Leave
TTITLE6=Huckle up Baby
TTITLE7=Let Your Daddy Ride
TTITLE8=Let Your Daddy Ride
TTITLE9=Goin' Down Highway 51
TTITLE10=Sail on Little Girl
TTITLE11=Alberta, Pt.2
TTITLE12=The Moon Above
TTITLE13=She Left Me by Myself
TTITLE14=No Mortage on My Soul
TTITLE15=My Baby's Got Somethin'
TTITLE16=Decoration Day Blues
TTITLE17=Boogie Chillen, No.2
TTITLE18=21 Boogie
TTITLE19=Jump Chillun
TTITLE20=Roll 'N' Roll
TTITLE21=Rollin' Blues
TTITLE22=Crying All Night
EXTD=
EXTT0=
EXTT1=
EXTT2=
EXTT3=
EXTT4=
EXTT5=
EXTT6=
EXTT7=
EXTT8=
EXTT9=
EXTT10=
EXTT11=
EXTT12=
EXTT13=
EXTT14=
EXTT15=
EXTT16=
EXTT17=
EXTT18=
EXTT19=
EXTT20=
EXTT21=
EXTT22=
PLAYORDER=
